# This file uses centimeters as units for non-parametric coordinates.

mtllib cone.mtl
g default
v -3.170075 0.000000 1.830244
v 3.170075 0.000000 1.830243
v -0.000001 0.000000 -3.660487
v 0.000000 0.000000 3.660487
v 3.170075 0.000000 -1.830244
v -3.170075 0.000000 -1.830243
v -0.000000 0.000000 0.000000
v -3.660487 0.000000 0.000000
v -1.830243 0.000000 3.170075
v 0.000000 0.000000 1.830244
v -1.585038 0.000000 -0.915122
v -1.585037 0.000000 0.915122
v 1.830244 0.000000 3.170075
v 3.660487 0.000000 -0.000001
v 1.585037 0.000000 -0.915122
v 1.585037 0.000000 0.915122
v 1.830243 0.000000 -3.170075
v -1.830244 0.000000 -3.170075
v -0.000000 0.000000 -1.830244
v -2.377556 0.000000 -1.372682
v -3.535759 0.000000 -0.947403
v -2.622762 0.000000 0.457561
v -1.585037 0.000000 0.000000
v -2.500159 0.000000 -0.457561
v -3.535759 0.000000 0.947404
v -2.588355 0.000000 2.588355
v -1.707641 0.000000 2.042598
v -2.561461 0.000000 1.478860
v -0.947404 0.000000 3.535759
v 0.000000 0.000000 2.745365
v -0.792519 0.000000 1.372683
v -0.853820 0.000000 2.393982
v -0.000000 0.000000 0.915122
v -0.792519 0.000000 -0.457561
v -0.792519 0.000000 0.457561
v 0.947404 0.000000 3.535759
v 1.707641 0.000000 2.042598
v 0.792519 0.000000 1.372683
v 0.853820 0.000000 2.393982
v 2.588355 0.000000 2.588355
v 3.535759 0.000000 0.947403
v 2.622762 0.000000 0.457560
v 2.561461 0.000000 1.478860
v 3.535759 0.000000 -0.947404
v 2.377556 0.000000 -1.372683
v 1.585037 0.000000 -0.000000
v 2.500159 0.000000 -0.457561
v 0.792519 0.000000 -0.457561
v 0.792519 0.000000 0.457561
v 2.588355 0.000000 -2.588356
v 0.915121 0.000000 -2.500159
v 0.792518 0.000000 -1.372683
v 1.646338 0.000000 -1.936421
v 0.947403 0.000000 -3.535759
v -0.947404 0.000000 -3.535759
v -0.915122 0.000000 -2.500159
v -0.000000 0.000000 -2.957720
v -2.588356 0.000000 -2.588355
v -0.792519 0.000000 -1.372683
v -1.646339 0.000000 -1.936421
v -0.000000 0.000000 -0.915122
vt 0.066987 0.250000
vt 0.933013 0.250000
vt 0.500000 1.000000
vt 0.500000 0.000000
vt 0.933013 0.750000
vt 0.066987 0.750000
vt 0.500000 0.500000
vt 0.000000 0.500000
vt 0.250000 0.066987
vt 0.500000 0.250000
vt 0.283494 0.625000
vt 0.283494 0.375000
vt 0.750000 0.066987
vt 1.000000 0.500000
vt 0.716506 0.625000
vt 0.716506 0.375000
vt 0.750000 0.933013
vt 0.250000 0.933013
vt 0.500000 0.750000
vt 0.175240 0.687500
vt 0.017037 0.629409
vt 0.141747 0.437500
vt 0.283494 0.500000
vt 0.158494 0.562500
vt 0.017037 0.370590
vt 0.146447 0.146447
vt 0.266747 0.220994
vt 0.150120 0.297997
vt 0.370591 0.017037
vt 0.500000 0.125000
vt 0.391747 0.312500
vt 0.383373 0.172997
vt 0.500000 0.375000
vt 0.391747 0.562500
vt 0.391747 0.437500
vt 0.629410 0.017037
vt 0.733253 0.220994
vt 0.608253 0.312500
vt 0.616627 0.172997
vt 0.853553 0.146447
vt 0.982963 0.370591
vt 0.858253 0.437500
vt 0.849880 0.297997
vt 0.982963 0.629410
vt 0.824759 0.687500
vt 0.716506 0.500000
vt 0.841506 0.562500
vt 0.608253 0.562500
vt 0.608253 0.437500
vt 0.853553 0.853553
vt 0.625000 0.841506
vt 0.608253 0.687500
vt 0.724880 0.764503
vt 0.629409 0.982963
vt 0.370590 0.982963
vt 0.375000 0.841506
vt 0.500000 0.904006
vt 0.146447 0.853553
vt 0.391747 0.687500
vt 0.275120 0.764503
vt 0.500000 0.625000
vn 0.000000 1.000000 0.000000
vn 0.000000 1.000000 0.000000
vn 0.000000 1.000000 0.000000
vn 0.000000 1.000000 0.000000
vn 0.000000 1.000000 0.000000
vn 0.000000 1.000000 0.000000
vn 0.000000 1.000000 0.000000
vn 0.000000 1.000000 0.000000
vn 0.000000 1.000000 0.000000
vn 0.000000 1.000000 0.000000
vn 0.000000 1.000000 0.000000
vn 0.000000 1.000000 0.000000
vn 0.000000 1.000000 0.000000
vn 0.000000 1.000000 0.000000
vn 0.000000 1.000000 0.000000
vn 0.000000 1.000000 0.000000
vn 0.000000 1.000000 0.000000
vn 0.000000 1.000000 0.000000
vn 0.000000 1.000000 0.000000
vn 0.000000 1.000000 0.000000
vn 0.000000 1.000000 0.000000
vn 0.000000 1.000000 0.000000
vn 0.000000 1.000000 0.000000
vn 0.000000 1.000000 0.000000
vn 0.000000 1.000000 0.000000
vn 0.000000 1.000000 0.000000
vn 0.000000 1.000000 0.000000
vn 0.000000 1.000000 0.000000
vn 0.000000 1.000000 0.000000
vn 0.000000 1.000000 0.000000
vn 0.000000 1.000000 0.000000
vn 0.000000 1.000000 0.000000
vn 0.000000 1.000000 0.000000
vn 0.000000 1.000000 0.000000
vn 0.000000 1.000000 0.000000
vn 0.000000 1.000000 0.000000
vn 0.000000 1.000000 0.000000
vn 0.000000 1.000000 0.000000
vn 0.000000 1.000000 0.000000
vn 0.000000 1.000000 0.000000
vn 0.000000 1.000000 0.000000
vn 0.000000 1.000000 0.000000
vn 0.000000 1.000000 0.000000
vn 0.000000 1.000000 0.000000
vn 0.000000 1.000000 0.000000
vn 0.000000 1.000000 0.000000
vn 0.000000 1.000000 0.000000
vn 0.000000 1.000000 0.000000
vn 0.000000 1.000000 0.000000
vn 0.000000 1.000000 0.000000
vn 0.000000 1.000000 0.000000
vn 0.000000 1.000000 0.000000
vn 0.000000 1.000000 0.000000
vn 0.000000 1.000000 0.000000
vn 0.000000 1.000000 0.000000
vn 0.000000 1.000000 0.000000
vn 0.000000 1.000000 0.000000
vn 0.000000 1.000000 0.000000
vn 0.000000 1.000000 0.000000
vn 0.000000 1.000000 0.000000
vn 0.000000 1.000000 0.000000
s 1
g pDisc1
usemtl lambert2SG
f 23/23/1 11/11/2 20/20/3 24/24/4
f 20/20/3 6/6/5 21/21/6 24/24/4
f 21/21/6 8/8/7 22/22/8 24/24/4
f 22/22/8 12/12/9 23/23/1 24/24/4
f 22/22/8 8/8/7 25/25/10 28/28/11
f 25/25/10 1/1/12 26/26/13 28/28/11
f 26/26/13 9/9/14 27/27/15 28/28/11
f 27/27/15 12/12/9 22/22/8 28/28/11
f 27/27/15 9/9/14 29/29/16 32/32/17
f 29/29/16 4/4/18 30/30/19 32/32/17
f 30/30/19 10/10/20 31/31/21 32/32/17
f 31/31/21 12/12/9 27/27/15 32/32/17
f 31/31/21 10/10/20 33/33/22 35/35/23
f 33/33/22 7/7/24 34/34/25 35/35/23
f 34/34/25 11/11/2 23/23/1 35/35/23
f 23/23/1 12/12/9 31/31/21 35/35/23
f 38/38/26 10/10/20 30/30/19 39/39/27
f 30/30/19 4/4/18 36/36/28 39/39/27
f 36/36/28 13/13/29 37/37/30 39/39/27
f 37/37/30 16/16/31 38/38/26 39/39/27
f 37/37/30 13/13/29 40/40/32 43/43/33
f 40/40/32 2/2/34 41/41/35 43/43/33
f 41/41/35 14/14/36 42/42/37 43/43/33
f 42/42/37 16/16/31 37/37/30 43/43/33
f 42/42/37 14/14/36 44/44/38 47/47/39
f 44/44/38 5/5/40 45/45/41 47/47/39
f 45/45/41 15/15/42 46/46/43 47/47/39
f 46/46/43 16/16/31 42/42/37 47/47/39
f 46/46/43 15/15/42 48/48/44 49/49/45
f 48/48/44 7/7/24 33/33/22 49/49/45
f 33/33/22 10/10/20 38/38/26 49/49/45
f 38/38/26 16/16/31 46/46/43 49/49/45
f 52/52/46 15/15/42 45/45/41 53/53/47
f 45/45/41 5/5/40 50/50/48 53/53/47
f 50/50/48 17/17/49 51/51/50 53/53/47
f 51/51/50 19/19/51 52/52/46 53/53/47
f 51/51/50 17/17/49 54/54/52 57/57/53
f 54/54/52 3/3/54 55/55/55 57/57/53
f 55/55/55 18/18/56 56/56/57 57/57/53
f 56/56/57 19/19/51 51/51/50 57/57/53
f 56/56/57 18/18/56 58/58/58 60/60/59
f 58/58/58 6/6/5 20/20/3 60/60/59
f 20/20/3 11/11/2 59/59/60 60/60/59
f 59/59/60 19/19/51 56/56/57 60/60/59
f 59/59/60 11/11/2 34/34/25 61/61/61
f 34/34/25 7/7/24 48/48/44 61/61/61
f 48/48/44 15/15/42 52/52/46 61/61/61
f 52/52/46 19/19/51 59/59/60 61/61/61
g default
v 2.886261 0.002988 -0.937803
v 2.455200 0.002988 -1.783807
v 1.783807 0.002988 -2.455200
v 0.937803 0.002988 -2.886260
v 0.000000 0.002988 -3.034794
v -0.937803 0.002988 -2.886260
v -1.783807 0.002988 -2.455199
v -2.455199 0.002988 -1.783807
v -2.886260 0.002988 -0.937803
v -3.034793 0.002988 0.000000
v -2.886260 0.002988 0.937803
v -2.455199 0.002988 1.783806
v -1.783806 0.002988 2.455199
v -0.937803 0.002988 2.886259
v -0.000000 0.002988 3.034793
v 0.937802 0.002988 2.886259
v 1.783806 0.002988 2.455199
v 2.455198 0.002988 1.783806
v 2.886259 0.002988 0.937802
v 3.034792 0.002988 0.000000
v 0.000000 6.072573 0.000000
vt 0.737764 0.172746
vt 0.702254 0.103054
vt 0.646946 0.047746
vt 0.577254 0.012236
vt 0.500000 -0.000000
vt 0.422746 0.012236
vt 0.353054 0.047746
vt 0.297746 0.103054
vt 0.262236 0.172746
vt 0.250000 0.250000
vt 0.262236 0.327254
vt 0.297746 0.396946
vt 0.353054 0.452254
vt 0.422746 0.487764
vt 0.500000 0.500000
vt 0.577254 0.487764
vt 0.646946 0.452254
vt 0.702254 0.396946
vt 0.737764 0.327254
vt 0.750000 0.250000
vt 0.250000 0.500000
vt 0.275000 0.500000
vt 0.300000 0.500000
vt 0.325000 0.500000
vt 0.350000 0.500000
vt 0.375000 0.500000
vt 0.400000 0.500000
vt 0.425000 0.500000
vt 0.450000 0.500000
vt 0.475000 0.500000
vt 0.500000 0.500000
vt 0.525000 0.500000
vt 0.550000 0.500000
vt 0.575000 0.500000
vt 0.600000 0.500000
vt 0.625000 0.500000
vt 0.650000 0.500000
vt 0.675000 0.500000
vt 0.700000 0.500000
vt 0.725000 0.500000
vt 0.750000 0.500000
vt 0.500000 1.000000
vn 0.000000 -1.000000 -0.000000
vn 0.000000 -1.000000 -0.000000
vn 0.000000 -1.000000 -0.000000
vn 0.000000 -1.000000 -0.000000
vn 0.000000 -1.000000 -0.000000
vn 0.000000 -1.000000 -0.000000
vn 0.000000 -1.000000 -0.000000
vn 0.000000 -1.000000 -0.000000
vn 0.000000 -1.000000 -0.000000
vn 0.000000 -1.000000 -0.000000
vn 0.000000 -1.000000 -0.000000
vn 0.000000 -1.000000 -0.000000
vn 0.000000 -1.000000 -0.000000
vn 0.000000 -1.000000 -0.000000
vn 0.000000 -1.000000 -0.000000
vn 0.000000 -1.000000 -0.000000
vn 0.000000 -1.000000 -0.000000
vn 0.000000 -1.000000 -0.000000
vn 0.000000 -1.000000 -0.000000
vn 0.000000 -1.000000 -0.000000
vn 0.850651 0.447214 -0.276392
vn 0.723607 0.447214 -0.525731
vn -0.000000 1.000000 -0.000001
vn 0.525731 0.447214 -0.723607
vn 0.276393 0.447214 -0.850651
vn -0.000000 0.447214 -0.894427
vn -0.276393 0.447214 -0.850651
vn -0.525731 0.447214 -0.723607
vn -0.723607 0.447214 -0.525731
vn -0.850651 0.447214 -0.276393
vn -0.894427 0.447214 0.000000
vn -0.850651 0.447214 0.276393
vn -0.723607 0.447214 0.525731
vn -0.525731 0.447214 0.723607
vn -0.276393 0.447214 0.850651
vn 0.000000 0.447214 0.894427
vn 0.276393 0.447214 0.850651
vn 0.525731 0.447214 0.723607
vn 0.723607 0.447214 0.525731
vn 0.850651 0.447214 0.276393
vn 0.894427 0.447214 0.000001
s off
g pCone1
usemtl standardSurface2SG
f 62/62/62 81/81/63 80/80/64 79/79/65 78/78/66 77/77/67 76/76/68 75/75/69 74/74/70 73/73/71 72/72/72 71/71/73 70/70/74 69/69/75 68/68/76 67/67/77 66/66/78 65/65/79 64/64/80 63/63/81
s 1
f 62/82/82 63/83/83 82/103/84
f 63/83/83 64/84/85 82/103/84
f 64/84/85 65/85/86 82/103/84
f 65/85/86 66/86/87 82/103/84
f 66/86/87 67/87/88 82/103/84
f 67/87/88 68/88/89 82/103/84
f 68/88/89 69/89/90 82/103/84
f 69/89/90 70/90/91 82/103/84
f 70/90/91 71/91/92 82/103/84
f 71/91/92 72/92/93 82/103/84
f 72/92/93 73/93/94 82/103/84
f 73/93/94 74/94/95 82/103/84
f 74/94/95 75/95/96 82/103/84
f 75/95/96 76/96/97 82/103/84
f 76/96/97 77/97/98 82/103/84
f 77/97/98 78/98/99 82/103/84
f 78/98/99 79/99/100 82/103/84
f 79/99/100 80/100/101 82/103/84
f 80/100/101 81/101/102 82/103/84
f 81/101/102 62/102/82 82/103/84
